<svg width="55" height="55" viewBox="0 0 55 55" fill="none" xmlns="http://www.w3.org/2000/svg">
<path d="M27.9521 4.46914L33.5476 16.3152C34.0578 17.3953 35.0837 18.1406 36.2686 18.2921L49.2639 19.9531C49.6829 20.0067 49.8508 20.5235 49.5434 20.813L40.0062 29.7953C39.1366 30.6143 38.7448 31.8203 38.9669 32.994L41.403 45.8666C41.4815 46.2816 41.0419 46.601 40.6714 46.3981L29.1816 40.1034C28.134 39.5295 26.866 39.5295 25.8184 40.1034L14.3286 46.3981C13.9581 46.601 13.5185 46.2816 13.597 45.8666L16.0331 32.994C16.2552 31.8203 15.8634 30.6143 14.9938 29.7953L5.45665 20.8131C5.14915 20.5234 5.31708 20.0067 5.73606 19.9531L18.7314 18.2921C19.9163 18.1406 20.9422 17.3953 21.4524 16.3152L27.0479 4.46914C27.2283 4.08721 27.7717 4.0872 27.9521 4.46914Z" stroke="#FCB300" stroke-width="3"/>
<line x1="27.5" y1="40" x2="27.5" y2="7" stroke="#FCB300"/>
<path d="M14.25 23C13.1946 22.0619 10.5958 19.5711 10.75 22.5C10.7736 22.9496 10.9761 22.3644 9.87497 22.125C9.50003 22.0435 7.6594 21.7097 8.87497 22.25C9.61465 22.5787 10.1523 23.2258 11 23.25C11.6434 23.2684 12.2911 23.2762 12.8611 23.6389C13.747 24.2026 15.1331 25.312 16.25 25.25C17.0284 25.2067 17.2404 23.7849 17.6389 23.2778C18.0232 22.7885 19.1689 21.9809 19.6944 21.6111C20.081 21.3391 20.7309 21.1304 21.1389 21.0139C22.2091 20.7081 20.2492 20.5915 19.6666 20.5139C18.7997 20.3983 17.0623 20.2135 16.25 20.5555C15.6772 20.7967 14.971 21.1252 14.3611 21.2361C14.0519 21.2923 12.1683 21.2587 13.2639 21.875C15.5639 23.1688 17.1589 21 19.3889 21C19.9341 21 23.3177 19.3661 20.9444 21.0555C19.9436 21.768 18.8639 22.4079 17.7222 22.875C16.7839 23.2588 15.6927 24.3511 14.75 24.5C13.627 24.6773 13.75 26.1778 13.75 26.9861C13.75 27.9161 13.7414 28 14.6389 28C16.2703 28 16.8757 28.989 17.25 30.4861C17.4195 31.164 18.0023 31.522 18.1944 32.1944C18.4197 32.9829 18.9581 34.2035 19 35C19.0212 35.4034 19.1677 36.3044 18.8611 36.6111C18.4998 36.9724 17.8714 37.2975 17.7639 37.8889C17.5657 38.9787 17.25 39.8581 17.25 41C17.25 41.6138 17.1368 42.0592 16.6389 42.4861C15.8928 43.1256 17.5302 41.7985 17.75 41.4444C18.3497 40.4783 17.8274 39.0989 18.125 38.0278C18.3414 37.2488 18.25 36.4165 18.25 35.6111C18.25 34.8774 17.466 35.1114 17.5 34.5C17.5149 34.2305 17.8479 34.0278 18.0972 34.0278C18.3825 34.0278 18.25 35.0724 18.25 35.25C18.25 37.4961 16.9324 39.527 16.0555 41.5C15.8738 41.9089 16.2352 42.7118 15.875 43C15.2101 43.5319 15.5012 44.0664 16.25 43.0555C16.7288 42.4092 18.0496 41.5391 18.75 41.1111C19.4685 40.672 20.1623 40.1652 20.8889 39.75C21.4507 39.4289 21.9427 39.1461 22.5 38.8055C22.8162 38.6123 23.4829 38.6348 23.6944 38.4444C24.1582 38.0271 24.0661 37.5 24.875 37.5C25.9447 37.5 24.7685 37.0936 24.375 36.875C23.368 36.3155 23.0245 36.7945 22.7639 35.3611C22.5041 33.9324 22.25 32.6732 22.25 31.1944C22.25 29.5259 22.0617 27.7375 22.4444 26.1111C22.647 25.2503 22.8775 24.6013 23.25 23.75C23.8097 22.4705 23.9478 21.2711 24.3611 19.9722C24.848 18.4419 24.5 16.3449 24.5 14.75C24.5 13.4124 24.9564 12.9482 25.5555 11.75C25.7216 11.4178 25.75 10.2813 25.75 10.6528C25.75 11.6663 25.25 12.6546 25.25 13.7361C25.25 15.4398 25 17.1606 25 18.8055C25 20.9865 25.029 23.6431 24.375 25.7361C24.0527 26.7673 24.25 28.0434 24.25 29.125C24.25 30.4348 23.6583 31.6596 24.1944 33C24.4968 33.7558 24.09 33.8868 23.5139 34.1389C22.5896 34.5432 21.6881 35.7668 21.0555 36.5C20.7733 36.8272 19.8817 38.3769 19.3889 38.2361C18.8308 38.0766 19.5079 35.8981 19.625 35.625C20.4625 33.6707 21.1753 30.6763 19.75 28.8055C19.0849 27.9326 15.992 25.3525 17.6666 24.2361C18.8084 23.4749 19.7668 22.6508 21 22C21.8983 21.5259 22.3996 20.7739 22.4861 19.7361C22.5957 18.4207 22.5 17.0717 22.5 15.75C22.5 13.4697 22.347 15.2216 22 16.5C21.2786 19.1578 19.522 21.5006 18.5 24.0555C17.9293 25.4823 16.4998 29.3116 19.7222 27.125C20.9861 26.2673 21.3202 24.5062 22.875 25.75C23.4542 26.2134 23.2753 28.1861 23.25 28.9444C23.1904 30.7315 22.2561 30.6517 21.9444 29C21.8033 28.2519 21.1206 26.489 21.875 25.9861C22.5591 25.53 23.3437 23.5064 23.4861 25.5C23.6087 27.217 23.75 29.1159 23.75 30.8055C23.75 32.2845 24.1799 33.5116 24.5555 34.8889C24.7046 35.4353 26.7948 38.1591 26.4861 36.1528C26.3719 35.4108 26 35.0209 26 34.1111C26 33.4907 25.9087 33.1181 25.7639 32.6111C25.5123 31.7307 26.1372 30.4215 25.5555 29.6944C25.1922 29.2402 25.2668 26.9152 25.25 26.3611C25.2212 25.4119 24.75 24.4131 24.75 23.3194C24.75 20.938 24.5 18.5503 24.5 16.2361C24.5 15.0615 24.1461 13.1956 24.75 12.1389C24.9618 11.7682 25.2144 11.5176 25.4444 11C25.6091 10.6294 25.5755 9.84311 25.8055 9.55553C26.0647 9.23155 25.8346 8.64143 25.7639 8.88887C25.5292 9.71014 25.2662 10.6113 25.25 11.4722C25.2164 13.2525 25.5 14.9592 25.5 16.7361C25.5 19.2128 26.1909 21.7682 25.4444 24.1944C25.1223 25.2414 25.25 26.3947 25.25 27.5C25.25 28.029 25.0863 28.8955 25.3055 29.3889C25.5248 29.8823 25.7603 29.75 25 29.75" stroke="#FCB300" stroke-width="3" stroke-linecap="round"/>
<path d="M20.75 23C20.75 24.3833 18.9898 25.5933 18.5556 26.9444C18.079 28.4271 20.6603 27.9047 21.25 27.5C22.0772 26.9323 23.25 25.5818 23.25 24.5C23.25 24.162 22.75 23.5752 22.75 24.25C22.75 24.7389 23.105 25 22.5 25" stroke="#FCB300" stroke-width="3" stroke-linecap="round"/>
<path d="M25.75 24.5C25.3117 25.0479 24.5077 31.5514 25.6111 31.2361C26.0822 31.1015 25.75 25.3589 25.75 24.625C25.75 22.316 25 20.1222 25 17.75C25 16.6229 25.1407 15.6857 25.2639 14.6389C25.2996 14.3351 25.6073 11.678 25.25 12.75" stroke="#FCB300" stroke-width="3" stroke-linecap="round"/>
<path d="M26.25 12.25C26.25 12.7422 26.5 13.1017 26.5 13.5625C26.5 14.2531 26.7239 13.8619 26.5 13.75" stroke="#FCB300" stroke-width="3" stroke-linecap="round"/>
<path d="M11.75 23.875C12.1455 24.0068 12.4421 24.958 12.6875 25.3125C13.0023 25.7672 13.3104 26.1442 13.75 26.4861C14.1108 26.7668 14.4922 26.8 14.8958 26.9514C15.7464 27.2703 16.4785 27.7316 17.25 28.1875C18.217 28.7589 18.8118 29.482 19.625 30.25C19.8357 30.449 20.8304 31.826 20.5 31" stroke="#FCB300" stroke-width="3" stroke-linecap="round"/>
</svg>
