<svg width="49" height="46" viewBox="0 0 49 46" fill="none" xmlns="http://www.w3.org/2000/svg">
<path d="M22.6916 1.82848C23.4132 0.300758 25.5868 0.300762 26.3084 1.82848L31.9039 13.6745C32.1955 14.2917 32.7817 14.7176 33.4588 14.8042L46.4541 16.4652C48.1301 16.6794 48.8017 18.7466 47.5718 19.905L38.0347 28.8873C37.5377 29.3553 37.3138 30.0444 37.4408 30.7151L39.8768 43.5877C40.191 45.2478 38.4325 46.5254 36.9507 45.7136L25.4609 39.419C24.8623 39.091 24.1377 39.091 23.5391 39.4189L12.0493 45.7136C10.5675 46.5254 8.80904 45.2478 9.1232 43.5877L11.5592 30.7151C11.6862 30.0444 11.4623 29.3553 10.9653 28.8873L1.42823 19.905C0.198271 18.7466 0.869934 16.6794 2.54588 16.4652L15.5412 14.8042C16.2183 14.7176 16.8045 14.2917 17.0961 13.6745L22.6916 1.82848Z" fill="#FCB300"/>
</svg>
