<svg width="49" height="46" viewBox="0 0 49 46" fill="none" xmlns="http://www.w3.org/2000/svg">
<path d="M24.9521 2.46914L30.5476 14.3152C31.0578 15.3953 32.0837 16.1406 33.2686 16.2921L46.2639 17.9531C46.6829 18.0067 46.8508 18.5235 46.5434 18.813L37.0062 27.7953C36.1366 28.6143 35.7448 29.8203 35.9669 30.994L38.403 43.8666C38.4815 44.2816 38.0419 44.601 37.6714 44.3981L26.1816 38.1034C25.134 37.5295 23.866 37.5295 22.8184 38.1034L11.3286 44.3981C10.9581 44.601 10.5185 44.2816 10.597 43.8666L13.0331 30.994C13.2552 29.8203 12.8634 28.6143 11.9938 27.7953L2.45665 18.8131C2.14915 18.5234 2.31708 18.0067 2.73606 17.9531L15.7314 16.2921C16.9163 16.1406 17.9422 15.3953 18.4524 14.3152L24.0479 2.46914C24.2283 2.08721 24.7717 2.0872 24.9521 2.46914Z" stroke="#FCB300" stroke-width="3"/>
</svg>
